<svg width="326.746" height="42.48" viewBox="0 0 326.746 42.48" xmlns="http://www.w3.org/2000/svg"><g id="svgGroup" stroke-linecap="round" fill-rule="evenodd" font-size="9pt" stroke="#446285" stroke-width="0mm" fill="#446285" style="stroke:#446285;stroke-width:0mm;fill:#446285"><path d="M 94.32 23.265 L 74.655 23.265 L 74.655 19.17 L 90.63 19.17 L 87.93 20.385 A 7.863 7.863 0 0 0 87.764 18.728 A 5.985 5.985 0 0 0 87.165 17.1 Q 86.4 15.705 85.05 14.918 A 5.749 5.749 0 0 0 82.929 14.199 A 7.403 7.403 0 0 0 81.9 14.13 A 6.979 6.979 0 0 0 80.158 14.339 A 5.72 5.72 0 0 0 78.728 14.917 Q 77.355 15.705 76.59 17.123 A 6.247 6.247 0 0 0 75.942 19.042 A 8.427 8.427 0 0 0 75.825 20.475 L 75.825 21.555 A 7.577 7.577 0 0 0 76.059 23.471 A 6.229 6.229 0 0 0 76.703 25.042 Q 77.58 26.55 79.178 27.338 A 7.458 7.458 0 0 0 81.243 27.99 A 10.141 10.141 0 0 0 82.935 28.125 A 10.841 10.841 0 0 0 84.632 27.999 A 7.895 7.895 0 0 0 86.333 27.54 A 8.185 8.185 0 0 0 88.78 25.999 A 9.418 9.418 0 0 0 89.01 25.785 L 92.745 29.835 Q 91.08 31.725 88.56 32.737 A 13.672 13.672 0 0 1 85.483 33.556 A 18.374 18.374 0 0 1 82.755 33.75 A 17.925 17.925 0 0 1 78.982 33.37 A 13.92 13.92 0 0 1 75.488 32.13 A 12.424 12.424 0 0 1 71.998 29.495 A 11.507 11.507 0 0 1 70.65 27.697 A 11.801 11.801 0 0 1 68.982 22.391 A 14.429 14.429 0 0 1 68.94 21.285 A 13.392 13.392 0 0 1 69.445 17.547 A 11.445 11.445 0 0 1 70.628 14.828 Q 72.315 12.015 75.24 10.418 Q 78.165 8.82 81.855 8.82 Q 85.41 8.82 88.268 10.328 Q 91.125 11.835 92.79 14.648 A 11.709 11.709 0 0 1 94.221 18.594 A 15.834 15.834 0 0 1 94.455 21.375 A 8.702 8.702 0 0 1 94.447 21.751 Q 94.438 21.943 94.422 22.154 A 14.674 14.674 0 0 1 94.41 22.297 Q 94.365 22.815 94.32 23.265 Z M 64.215 19.53 L 64.215 33.39 L 57.195 33.39 L 57.195 20.61 A 10.612 10.612 0 0 0 57.088 19.047 Q 56.969 18.247 56.716 17.606 A 4.188 4.188 0 0 0 55.913 16.29 A 4.178 4.178 0 0 0 53.712 15.045 A 6.348 6.348 0 0 0 52.29 14.895 A 6.825 6.825 0 0 0 50.478 15.128 A 5.865 5.865 0 0 0 49.298 15.592 A 4.77 4.77 0 0 0 47.374 17.464 A 5.902 5.902 0 0 0 47.228 17.73 A 6.088 6.088 0 0 0 46.72 19.145 Q 46.562 19.823 46.511 20.617 A 12.34 12.34 0 0 0 46.485 21.42 L 46.485 33.39 L 39.465 33.39 L 39.465 9.18 L 46.17 9.18 L 46.17 15.885 L 44.91 13.86 Q 46.215 11.43 48.645 10.125 A 10.984 10.984 0 0 1 52.67 8.902 A 13.671 13.671 0 0 1 54.18 8.82 Q 57.06 8.82 59.333 9.968 Q 61.605 11.115 62.91 13.478 Q 64.215 15.84 64.215 19.53 Z M 230.31 33.39 L 223.02 33.39 L 223.02 7.83 L 212.94 7.83 L 212.94 1.89 L 240.39 1.89 L 240.39 7.83 L 230.31 7.83 L 230.31 33.39 Z M 126.675 33.39 L 112.365 33.39 L 112.365 1.89 L 126.675 1.89 A 22.839 22.839 0 0 1 131.431 2.364 A 17.844 17.844 0 0 1 135.72 3.848 A 15.276 15.276 0 0 1 140.548 7.56 A 14.671 14.671 0 0 1 141.84 9.315 Q 144.045 12.825 144.045 17.64 Q 144.045 22.41 141.84 25.943 Q 139.635 29.475 135.72 31.433 A 18.348 18.348 0 0 1 130.132 33.148 A 23.865 23.865 0 0 1 126.675 33.39 Z M 12.62 33.407 A 20.16 20.16 0 0 0 17.28 33.93 Q 20.97 33.93 24.098 32.715 A 18.895 18.895 0 0 0 24.147 32.696 A 16.622 16.622 0 0 0 29.543 29.318 Q 31.86 27.135 33.165 24.143 A 15.192 15.192 0 0 0 33.766 22.516 A 16.567 16.567 0 0 0 34.47 17.64 Q 34.47 14.085 33.165 11.138 Q 31.86 8.19 29.543 5.985 Q 27.225 3.78 24.098 2.565 A 17.168 17.168 0 0 0 21.667 1.825 A 20.029 20.029 0 0 0 17.235 1.35 A 21.54 21.54 0 0 0 15.87 1.393 A 18.353 18.353 0 0 0 10.395 2.565 Q 7.245 3.78 4.905 5.985 Q 2.565 8.19 1.283 11.16 Q 0 14.13 0 17.64 A 18.555 18.555 0 0 0 0.032 18.724 A 15.834 15.834 0 0 0 1.283 24.12 Q 2.565 27.09 4.883 29.295 A 15.619 15.619 0 0 0 5.628 29.96 A 16.559 16.559 0 0 0 10.373 32.715 A 17.657 17.657 0 0 0 12.62 33.407 Z M 172.665 40.275 L 175.23 35.28 Q 176.04 36 177.098 36.405 A 6.081 6.081 0 0 0 178.537 36.77 A 5.379 5.379 0 0 0 179.19 36.81 A 5.144 5.144 0 0 0 180.139 36.728 Q 180.689 36.624 181.126 36.392 A 2.795 2.795 0 0 0 181.553 36.113 A 3.9 3.9 0 0 0 182.182 35.468 Q 182.697 34.814 183.15 33.795 L 184.41 30.825 L 184.95 30.06 L 193.635 9.18 L 200.385 9.18 L 189.45 34.875 Q 188.28 37.8 186.773 39.465 Q 185.265 41.13 183.443 41.805 A 10.848 10.848 0 0 1 180.756 42.414 A 13.32 13.32 0 0 1 179.415 42.48 Q 177.525 42.48 175.68 41.895 A 10.009 10.009 0 0 1 174.195 41.297 Q 173.364 40.878 172.727 40.329 A 6.257 6.257 0 0 1 172.665 40.275 Z M 170.46 33.39 L 163.89 33.39 L 163.89 28.665 L 163.44 27.63 L 163.44 19.17 A 5.928 5.928 0 0 0 163.271 17.71 A 4.076 4.076 0 0 0 162.068 15.66 Q 160.695 14.4 157.86 14.4 Q 155.925 14.4 154.058 15.008 A 11.412 11.412 0 0 0 152.281 15.748 A 8.882 8.882 0 0 0 150.885 16.65 L 148.365 11.745 Q 150.345 10.35 153.135 9.585 Q 155.925 8.82 158.805 8.82 A 18.888 18.888 0 0 1 162.171 9.101 Q 164.049 9.442 165.536 10.195 A 9.419 9.419 0 0 1 167.4 11.43 A 8.115 8.115 0 0 1 169.832 15.159 Q 170.46 17.067 170.46 19.575 L 170.46 33.39 Z M 249.018 33.299 A 15.737 15.737 0 0 0 252.855 33.75 A 16.863 16.863 0 0 0 254.547 33.667 A 13.654 13.654 0 0 0 259.695 32.13 Q 262.71 30.51 264.42 27.698 A 11.402 11.402 0 0 0 265.559 25.184 A 12.933 12.933 0 0 0 266.13 21.285 A 14.676 14.676 0 0 0 266.036 19.605 A 11.604 11.604 0 0 0 264.42 14.805 Q 262.71 12.015 259.695 10.418 Q 256.68 8.82 252.855 8.82 A 17.118 17.118 0 0 0 250.748 8.946 A 13.54 13.54 0 0 0 245.993 10.417 Q 243 12.015 241.268 14.828 A 11.29 11.29 0 0 0 240.068 17.497 A 13.043 13.043 0 0 0 239.535 21.285 Q 239.535 24.885 241.268 27.698 Q 243 30.51 245.993 32.13 A 12.931 12.931 0 0 0 249.018 33.299 Z M 309.633 33.299 A 15.737 15.737 0 0 0 313.47 33.75 A 16.863 16.863 0 0 0 315.162 33.667 A 13.654 13.654 0 0 0 320.31 32.13 Q 323.325 30.51 325.035 27.698 A 11.402 11.402 0 0 0 326.174 25.184 A 12.933 12.933 0 0 0 326.745 21.285 A 14.676 14.676 0 0 0 326.651 19.605 A 11.604 11.604 0 0 0 325.035 14.805 Q 323.325 12.015 320.31 10.418 Q 317.295 8.82 313.47 8.82 A 17.118 17.118 0 0 0 311.363 8.946 A 13.54 13.54 0 0 0 306.608 10.417 Q 303.615 12.015 301.883 14.828 A 11.29 11.29 0 0 0 300.683 17.497 A 13.043 13.043 0 0 0 300.15 21.285 Q 300.15 24.885 301.883 27.698 Q 303.615 30.51 306.608 32.13 A 12.931 12.931 0 0 0 309.633 33.299 Z M 295.47 33.39 L 288.765 33.39 L 288.765 28.44 L 288.9 21.24 L 288.45 14.085 L 288.45 0 L 295.47 0 L 295.47 33.39 Z M 277.194 33.144 A 12.952 12.952 0 0 0 281.205 33.75 A 12.871 12.871 0 0 0 283.561 33.544 A 9.407 9.407 0 0 0 286.673 32.4 A 7.943 7.943 0 0 0 288.802 30.549 A 9.914 9.914 0 0 0 290.16 28.283 A 11.94 11.94 0 0 0 290.668 26.887 Q 291.375 24.511 291.375 21.285 A 25.802 25.802 0 0 0 291.316 19.503 Q 291.102 16.415 290.115 14.265 A 10.923 10.923 0 0 0 289.468 13.055 A 8.447 8.447 0 0 0 286.56 10.17 A 9.418 9.418 0 0 0 284.053 9.152 A 11.719 11.719 0 0 0 281.205 8.82 A 14.687 14.687 0 0 0 280.257 8.85 A 12.188 12.188 0 0 0 275.04 10.35 Q 272.295 11.88 270.698 14.67 A 11.668 11.668 0 0 0 269.428 18.031 A 15.414 15.414 0 0 0 269.1 21.285 A 15.733 15.733 0 0 0 269.289 23.767 A 11.938 11.938 0 0 0 270.698 27.855 Q 272.295 30.645 275.04 32.197 A 11.651 11.651 0 0 0 277.194 33.144 Z M 157.86 19.17 L 164.295 19.17 L 164.295 23.265 L 158.625 23.265 Q 156.683 23.265 155.697 23.764 A 2.237 2.237 0 0 0 155.228 24.075 A 2.691 2.691 0 0 0 154.522 25.018 A 2.664 2.664 0 0 0 154.305 26.1 A 2.768 2.768 0 0 0 154.493 27.139 Q 154.743 27.762 155.325 28.209 A 3.178 3.178 0 0 0 155.363 28.237 Q 156.236 28.888 157.646 29.001 A 7.733 7.733 0 0 0 158.265 29.025 Q 160.02 29.025 161.415 28.193 A 4.724 4.724 0 0 0 163.359 25.939 A 5.907 5.907 0 0 0 163.44 25.74 L 164.52 28.98 Q 163.755 31.32 161.73 32.535 Q 160.008 33.568 157.439 33.723 A 15.482 15.482 0 0 1 156.51 33.75 Q 153.88 33.75 151.947 32.917 A 8.374 8.374 0 0 1 151.65 32.782 A 8.217 8.217 0 0 1 149.825 31.61 A 6.788 6.788 0 0 1 148.545 30.15 Q 147.465 28.485 147.465 26.415 Q 147.465 24.255 148.523 22.635 Q 149.58 21.015 151.875 20.093 A 11.117 11.117 0 0 1 153.793 19.53 Q 154.783 19.328 155.947 19.239 A 25.216 25.216 0 0 1 157.86 19.17 Z M 119.655 7.875 L 119.655 27.405 L 126.315 27.405 A 14.023 14.023 0 0 0 128.999 27.16 A 10.395 10.395 0 0 0 131.783 26.212 Q 134.1 25.02 135.383 22.815 Q 136.665 20.61 136.665 17.64 A 11.89 11.89 0 0 0 136.402 15.079 A 8.978 8.978 0 0 0 135.383 12.442 Q 134.1 10.26 131.783 9.068 A 10.515 10.515 0 0 0 128.737 8.072 A 14.26 14.26 0 0 0 126.315 7.875 L 119.655 7.875 Z M 188.37 29.43 L 183.555 34.335 L 172.755 9.18 L 180 9.18 L 188.37 29.43 Z M 17.235 27.72 A 10.846 10.846 0 0 0 19.836 27.417 A 9.458 9.458 0 0 0 21.128 27 Q 22.905 26.28 24.255 24.93 Q 25.605 23.58 26.348 21.735 A 10.297 10.297 0 0 0 27.028 18.907 A 12.651 12.651 0 0 0 27.09 17.64 A 11.82 11.82 0 0 0 26.842 15.174 A 9.847 9.847 0 0 0 26.348 13.545 Q 25.605 11.7 24.278 10.35 Q 22.95 9 21.15 8.28 A 10.197 10.197 0 0 0 17.953 7.581 A 11.973 11.973 0 0 0 17.235 7.56 A 10.846 10.846 0 0 0 14.634 7.863 A 9.458 9.458 0 0 0 13.343 8.28 Q 11.565 9 10.215 10.35 Q 8.865 11.7 8.123 13.545 A 10.297 10.297 0 0 0 7.442 16.373 A 12.651 12.651 0 0 0 7.38 17.64 Q 7.38 19.845 8.123 21.713 A 9.699 9.699 0 0 0 9.792 24.495 A 9.162 9.162 0 0 0 10.193 24.93 Q 11.52 26.28 13.32 27 A 10.197 10.197 0 0 0 16.518 27.699 A 11.973 11.973 0 0 0 17.235 27.72 Z M 252.855 27.99 A 6.516 6.516 0 0 0 254.86 27.689 A 5.82 5.82 0 0 0 256.005 27.18 A 5.739 5.739 0 0 0 258.146 24.979 A 6.848 6.848 0 0 0 258.21 24.863 Q 259.02 23.355 259.02 21.285 Q 259.02 19.17 258.21 17.685 Q 257.4 16.2 256.005 15.39 A 6.035 6.035 0 0 0 253.315 14.594 A 7.311 7.311 0 0 0 252.855 14.58 A 6.516 6.516 0 0 0 250.85 14.881 A 5.82 5.82 0 0 0 249.705 15.39 A 5.95 5.95 0 0 0 247.504 17.639 A 7.036 7.036 0 0 0 247.478 17.685 A 6.298 6.298 0 0 0 246.805 19.555 Q 246.65 20.335 246.645 21.227 A 10.682 10.682 0 0 0 246.645 21.285 A 8.644 8.644 0 0 0 246.816 23.045 A 6.448 6.448 0 0 0 247.478 24.862 A 6.135 6.135 0 0 0 248.85 26.573 A 5.718 5.718 0 0 0 249.705 27.18 A 6.035 6.035 0 0 0 252.395 27.976 A 7.311 7.311 0 0 0 252.855 27.99 Z M 313.47 27.99 A 6.516 6.516 0 0 0 315.475 27.689 A 5.82 5.82 0 0 0 316.62 27.18 A 5.739 5.739 0 0 0 318.761 24.979 A 6.848 6.848 0 0 0 318.825 24.863 Q 319.635 23.355 319.635 21.285 Q 319.635 19.17 318.825 17.685 Q 318.015 16.2 316.62 15.39 A 6.035 6.035 0 0 0 313.93 14.594 A 7.311 7.311 0 0 0 313.47 14.58 A 6.516 6.516 0 0 0 311.465 14.881 A 5.82 5.82 0 0 0 310.32 15.39 A 5.95 5.95 0 0 0 308.119 17.639 A 7.036 7.036 0 0 0 308.093 17.685 A 6.298 6.298 0 0 0 307.42 19.555 Q 307.265 20.335 307.26 21.227 A 10.682 10.682 0 0 0 307.26 21.285 A 8.644 8.644 0 0 0 307.431 23.045 A 6.448 6.448 0 0 0 308.093 24.862 A 6.135 6.135 0 0 0 309.465 26.573 A 5.718 5.718 0 0 0 310.32 27.18 A 6.035 6.035 0 0 0 313.01 27.976 A 7.311 7.311 0 0 0 313.47 27.99 Z M 282.42 27.99 A 6.218 6.218 0 0 0 284.75 27.558 A 5.913 5.913 0 0 0 285.525 27.18 A 5.873 5.873 0 0 0 287.647 25.048 A 7.021 7.021 0 0 0 287.753 24.863 Q 288.585 23.355 288.585 21.285 A 8.962 8.962 0 0 0 288.437 19.613 Q 288.234 18.544 287.753 17.685 A 6.074 6.074 0 0 0 286.158 15.814 A 5.857 5.857 0 0 0 285.525 15.39 Q 284.13 14.58 282.42 14.58 A 6.516 6.516 0 0 0 280.415 14.881 A 5.82 5.82 0 0 0 279.27 15.39 A 5.95 5.95 0 0 0 277.069 17.639 A 7.036 7.036 0 0 0 277.043 17.685 A 6.298 6.298 0 0 0 276.37 19.555 Q 276.215 20.335 276.21 21.227 A 10.682 10.682 0 0 0 276.21 21.285 A 8.644 8.644 0 0 0 276.381 23.045 A 6.448 6.448 0 0 0 277.043 24.862 A 6.135 6.135 0 0 0 278.415 26.573 A 5.718 5.718 0 0 0 279.27 27.18 A 6.035 6.035 0 0 0 281.96 27.976 A 7.311 7.311 0 0 0 282.42 27.99 Z" vector-effect="non-scaling-stroke"/></g></svg>